<svg width="120" height="120" viewBox="0 0 120 120" fill="none" xmlns="http://www.w3.org/2000/svg">
  <defs>
    <linearGradient id="deathGrad" x1="0%" y1="0%" x2="100%" y2="100%">
      <stop offset="0%" stopColor="#EC4899" />
      <stop offset="100%" stopColor="#8B5CF6" />
    </linearGradient>
    <filter id="softShadowDeath" x="-20%" y="-20%" width="140%" height="140%">
      <feGaussianBlur in="SourceAlpha" stdDeviation="3" />
      <feOffset dx="2" dy="4" result="offsetblur" />
      <feComponentTransfer><feFuncA type="linear" slope="0.3" /></feComponentTransfer>
      <feMerge><feMergeNode /><feMergeNode in="SourceGraphic" /></feMerge>
    </filter>
  </defs>
  <circle cx="60" cy="60" r="50" fill="white" fillOpacity="0.8" filter="url(#softShadowDeath)" />
  <g filter="url(#softShadowDeath)">
    <path d="M40 35H80L75 55C75 55 60 60 60 60C60 60 45 55 45 55L40 35Z" fill="url(#deathGrad)" fillOpacity="0.2" stroke="url(#deathGrad)" strokeWidth="4" />
    <path d="M40 85H80L75 65C75 65 60 60 60 60C60 60 45 65 45 65L40 85Z" fill="url(#deathGrad)" fillOpacity="0.6" stroke="url(#deathGrad)" strokeWidth="4" />
    <rect x="35" y="30" width="50" height="5" rx="2.5" fill="url(#deathGrad)" />
    <rect x="35" y="85" width="50" height="5" rx="2.5" fill="url(#deathGrad)" />
  </g>
  <circle cx="55" cy="60" r="2" fill="#4B5563" />
  <circle cx="65" cy="60" r="2" fill="#4B5563" />
  <path d="M58 65C58 65 59 66 60 66C61 66 62 65 62 65" stroke="#4B5563" strokeWidth="1.5" strokeLinecap="round" />
</svg>