<svg width="120" height="120" viewBox="0 0 120 120" fill="none" xmlns="http://www.w3.org/2000/svg">
  <defs>
    <linearGradient id="pixelGrad" x1="0%" y1="0%" x2="100%" y2="100%">
      <stop offset="0%" stopColor="#60A5FA" />
      <stop offset="100%" stopColor="#3B82F6" />
    </linearGradient>
    <filter id="pixelShadow" x="-20%" y="-20%" width="140%" height="140%">
      <feGaussianBlur in="SourceAlpha" stdDeviation="3" />
      <feOffset dx="2" dy="4" result="offsetblur" />
      <feComponentTransfer><feFuncA type="linear" slope="0.3" /></feComponentTransfer>
      <feMerge><feMergeNode /><feMergeNode in="SourceGraphic" /></feMerge>
    </filter>
  </defs>
  <circle cx="60" cy="60" r="50" fill="white" fillOpacity="0.8" filter="url(#pixelShadow)" />
  <g filter="url(#pixelShadow)">
    <rect x="35" y="35" width="20" height="20" rx="4" fill="#93C5FD" />
    <rect x="55" y="35" width="20" height="20" rx="4" fill="#60A5FA" />
    <rect x="35" y="55" width="20" height="20" rx="4" fill="#3B82F6" />
    <rect x="55" y="55" width="20" height="20" rx="4" fill="#2563EB" />
    <rect x="75" y="45" width="15" height="15" rx="3" fill="#DBEAFE" />
    <rect x="45" y="75" width="15" height="15" rx="3" fill="#DBEAFE" />
  </g>
  <circle cx="52" cy="58" r="2" fill="white" />
  <circle cx="68" cy="58" r="2" fill="white" />
  <path d="M56 65C56 65 58 68 60 68C62 68 64 65 64 65" stroke="white" strokeWidth="2" strokeLinecap="round" />
</svg>